<svg width="254" height="254" viewBox="0 0 254 254" fill="none" xmlns="http://www.w3.org/2000/svg">
<g clip-path="url(#clip0_2008_2136)">
<rect width="254" height="254" fill="white"/>
<rect width="254" height="254" fill="#3B4045"/>
<path d="M108.052 105.245V89.5217C108.052 88.1975 108.549 87.204 109.707 86.5424L141.32 68.3367C145.623 65.8542 150.754 64.6962 156.05 64.6962C175.911 64.6962 188.49 80.0889 188.49 96.4737C188.49 97.632 188.49 98.9562 188.325 100.28L155.553 81.081C153.567 79.9226 151.581 79.9226 149.595 81.081L108.052 105.245ZM181.869 166.484V128.913C181.869 126.595 180.876 124.94 178.89 123.782L137.347 99.6175L150.919 91.838C152.077 91.1767 153.071 91.1767 154.229 91.838L185.842 110.044C194.946 115.341 201.069 126.595 201.069 137.518C201.069 150.096 193.621 161.682 181.869 166.483V166.484ZM98.287 133.382L84.7153 125.438C83.5573 124.777 83.0602 123.783 83.0602 122.459V86.0474C83.0602 68.3381 96.632 54.9309 115.004 54.9309C121.956 54.9309 128.41 57.2489 133.873 61.3861L101.268 80.2552C99.2822 81.4131 98.2887 83.0682 98.2887 85.3858V133.384L98.287 133.382ZM127.5 150.264L108.052 139.341V116.17L127.5 105.247L146.946 116.17V139.341L127.5 150.264ZM139.996 200.58C133.044 200.58 126.59 198.262 121.127 194.124L153.732 175.256C155.718 174.098 156.711 172.443 156.711 170.125V122.127L170.449 130.071C171.607 130.732 172.104 131.726 172.104 133.05V169.462C172.104 187.171 158.366 200.578 139.996 200.578V200.58ZM100.77 163.671L69.1563 145.465C60.0526 140.168 53.9295 128.914 53.9295 117.991C53.9295 105.247 61.5431 93.8269 73.2935 89.0267V126.763C73.2935 129.08 74.2873 130.735 76.2728 131.893L117.651 155.892L104.079 163.671C102.921 164.332 101.928 164.332 100.77 163.671ZM98.95 190.815C80.2472 190.815 66.5096 176.746 66.5096 159.368C66.5096 158.043 66.6755 156.719 66.84 155.395L99.4453 174.264C101.431 175.422 103.418 175.422 105.404 174.264L146.946 150.266V165.989C146.946 167.313 146.45 168.307 145.291 168.968L113.678 187.174C109.375 189.656 104.244 190.815 98.9483 190.815H98.95ZM139.996 210.51C160.023 210.51 176.738 196.276 180.546 177.407C199.083 172.607 211 155.229 211 137.52C211 125.933 206.035 114.68 197.097 106.569C197.925 103.093 198.422 99.6175 198.422 96.1432C198.422 72.4757 179.222 54.765 157.043 54.765C152.576 54.765 148.272 55.4262 143.969 56.9167C136.52 49.634 126.258 45 115.004 45C94.9773 45 78.2617 59.233 74.4536 78.1017C55.9167 82.9019 44 100.28 44 117.989C44 129.576 48.9648 140.829 57.9026 148.94C57.075 152.416 56.5783 155.892 56.5783 159.366C56.5783 183.033 75.7778 200.744 97.9562 200.744C102.424 200.744 106.728 200.083 111.031 198.592C118.479 205.875 128.74 210.51 139.996 210.51Z" fill="white"/>
</g>
<defs>
<clipPath id="clip0_2008_2136">
<rect width="254" height="254" fill="white"/>
</clipPath>
</defs>
</svg>
